:FULLY-SPECIFIED
:FORCE-ALL-JOINTS-BE-3DOF
:DEGREES
17
root 7.76659 15.9041 -35.161 7.42984 -4.80188 -4.25049
lfemur -46.6582 8.68375 -15.596
ltibia 46.2584 0 0
lfoot -9.59798 7.89973 0
ltoes -7.67892 0 0
rfemur 6.86176 3.35103 27.1055
rtibia 23.5732 0 0
rfoot 7.18396 1.2989 0
rtoes -3.66597 0 0
lowerback -4.74473 1.00745 1.12792
upperback -2.25203 1.23624 2.91469
thorax 0.246458 0.642935 2.46452
lowerneck -19.8966 -4.80786 -13.2088
upperneck 14.4192 -6.06303 16.6436
head 8.74468 -1.97344 7.16496
lclavicle 2.01333e-14 -3.37286e-15 0
lhumerus -43.0621 1.09446 87.3161
lradius 21.4759 0 0
lwrist -0.317782 0 0
lhand -3.63413 -19.1344 0
lfingers 7.12502 0 0
lthumb 22.0862 9.40673 0
rclavicle 2.01333e-14 -3.37286e-15 0
rhumerus -41.7217 18.7717 -88.9619
rradius 53.9242 0 0
rwrist -27.1363 0 0
rhand -31.6974 -26.5165 0
rfingers 7.12502 0 0
rthumb -4.95631 -56.4293 0
18
root 7.79226 15.9013 -35.0069 7.42413 -5.11564 -4.23849
lfemur -46.727 8.76354 -15.628
ltibia 46.2157 0 0
lfoot -9.36003 7.86273 0
ltoes -7.41823 0 0
rfemur 7.5639 3.2881 26.8672
rtibia 23.6256 0 0
rfoot 7.43075 1.31904 0
rtoes -3.93985 0 0
lowerback -4.78383 1.03432 1.10944
upperback -2.28209 1.27195 2.92895
thorax 0.234439 0.661359 2.49271
lowerneck -19.9657 -4.78922 -13.2003
upperneck 14.4924 -6.03061 16.5984
head 8.77425 -1.95882 7.1546
lclavicle 2.06613e-14 -4.4174e-15 0
lhumerus -43.3375 1.18304 87.3786
lradius 21.2383 0 0
lwrist -0.678902 0 0
lhand -3.16091 -18.9547 0
lfingers 7.12502 0 0
lthumb 22.5406 9.5346 0
rclavicle 2.06613e-14 -4.4174e-15 0
rhumerus -41.9007 18.8007 -89.2194
rradius 53.7078 0 0
rwrist -27.0226 0 0
rhand -31.6029 -26.5462 0
rfingers 7.12502 0 0
rthumb -4.86511 -56.4609 0
19
root 7.81847 15.8987 -34.848 7.41597 -5.42116 -4.22182
lfemur -46.7658 8.83692 -15.6675
ltibia 46.1547 0 0
lfoot -9.13065 7.82502 0
ltoes -7.15882 0 0
rfemur 8.22885 3.22772 26.6252
rtibia 23.6861 0 0
rfoot 7.65657 1.33312 0
rtoes -4.21675 0 0
lowerback -4.82383 1.05868 1.08809
upperback -2.31047 1.30456 2.94236
thorax 0.224958 0.678152 2.52133
lowerneck -20.0338 -4.77108 -13.1917
upperneck 14.5679 -5.99864 16.5508
head 8.8044 -1.94473 7.14332
lclavicle 2.1154e-14 -5.44115e-15 0
lhumerus -43.5948 1.25497 87.4404
lradius 21.0149 0 0
lwrist -1.02698 0 0
lhand -2.70281 -18.7821 0
lfingers 7.12502 0 0
lthumb 22.9804 9.65699 0
rclavicle 2.1154e-14 -5.44115e-15 0
rhumerus -42.0783 18.8243 -89.471
rradius 53.4852 0 0
rwrist -26.9071 0 0
rhand -31.5089 -26.5739 0
rfingers 7.12502 0 0
rthumb -4.77432 -56.4905 0
20
root 7.84518 15.8964 -34.6848 7.40544 -5.71841 -4.20065
lfemur -46.7756 8.90405 -15.7144
ltibia 46.076 0 0
lfoot -8.9098 7.78666 0
ltoes -6.90091 0 0
rfemur 8.8572 3.16989 26.3798
rtibia 23.7546 0 0
rfoot 7.86191 1.34132 0
rtoes -4.4963 0 0
lowerback -4.86467 1.08059 1.06399
upperback -2.33718 1.33413 2.95493
thorax 0.217942 0.693354 2.55034
lowerneck -20.1006 -4.75346 -13.1832
upperneck 14.6455 -5.96716 16.5009
head 8.83508 -1.93117 7.13115
lclavicle 2.16121e-14 -6.44379e-15 0
lhumerus -43.8345 1.31074 87.5015
lradius 20.8054 0 0
lwrist -1.3621 0 0
lhand -2.25979 -18.6165 0
lfingers 7.12502 0 0
lthumb 23.4058 9.77396 0
rclavicle 2.16121e-14 -6.44379e-15 0
rhumerus -42.2543 18.8428 -89.7168
rradius 53.2568 0 0
rwrist -26.7899 0 0
rhand -31.4154 -26.5997 0
rfingers 7.12502 0 0
rthumb -4.68401 -56.5182 0
21
root 7.87236 15.8944 -34.5175 7.39263 -6.00737 -4.17515
lfemur -46.7571 8.96505 -15.7682
ltibia 45.9805 0 0
lfoot -8.6974 7.74773 0
ltoes -6.6447 0 0
rfemur 9.4495 3.11456 26.1314
rtibia 23.8305 0 0
rfoot 8.04723 1.34384 0
rtoes -4.77812 0 0
lowerback -4.90628 1.10013 1.03726
upperback -2.36227 1.36074 2.96666
thorax 0.213316 0.707001 2.57969
lowerneck -20.1663 -4.73634 -13.1746
upperneck 14.7251 -5.93617 16.4487
head 8.86624 -1.91812 7.11814
lclavicle 2.20363e-14 -7.425e-15 0
lhumerus -44.0568 1.35083 87.5618
lradius 20.6095 0 0
lwrist -1.68436 0 0
lhand -1.83178 -18.4577 0
lfingers 7.12502 0 0
lthumb 23.8168 9.88557 0
rclavicle 2.20363e-14 -7.425e-15 0
rhumerus -42.4287 18.8562 -89.9567
rradius 53.0232 0 0
rwrist -26.6713 0 0
rhand -31.3225 -26.6237 0
rfingers 7.12502 0 0
rthumb -4.59427 -56.5441 0
22
root 7.89994 15.8926 -34.3464 7.37762 -6.288 -4.14549
lfemur -46.7115 9.02007 -15.8288
ltibia 45.8686 0 0
lfoot -8.49342 7.70827 0
ltoes -6.39041 0 0
rfemur 10.0063 3.06171 25.8804
rtibia 23.9136 0 0
rfoot 8.21299 1.34086 0
rtoes -5.06185 0 0
lowerback -4.94859 1.11733 1.00801
upperback -2.38575 1.38446 2.97758
thorax 0.211005 0.71913 2.60936
lowerneck -20.2307 -4.71974 -13.1661
upperneck 14.8065 -5.90568 16.3945
head 8.89783 -1.90559 7.10432
lclavicle 2.24273e-14 -8.38444e-15 0
lhumerus -44.2621 1.37571 87.6214
lradius 20.427 0 0
lwrist -1.99384 0 0
lhand -1.41874 -18.3059 0
lfingers 7.12502 0 0
lthumb 24.2134 9.99188 0
rclavicle 2.24273e-14 -8.38444e-15 0
rhumerus -42.6012 18.8647 -90.1907
rradius 52.7846 0 0
rwrist -26.5515 0 0
rhand -31.2302 -26.6459 0
rfingers 7.12502 0 0
rthumb -4.50516 -56.5681 0
23
root 7.9279 15.8911 -34.1719 7.36052 -6.56028 -4.11185
lfemur -46.6397 9.06924 -15.8957
ltibia 45.741 0 0
lfoot -8.29778 7.66835 0
ltoes -6.13825 0 0
rfemur 10.5283 3.01133 25.627
rtibia 24.0036 0 0
rfoot 8.35968 1.33257 0
rtoes -5.34709 0 0
lowerback -4.99152 1.13227 0.976365
upperback -2.40765 1.40535 2.9877
thorax 0.210934 0.72978 2.63928
lowerneck -20.2938 -4.70364 -13.1575
upperneck 14.8896 -5.87573 16.3383
head 8.9298 -1.89358 7.08975
lclavicle 2.27858e-14 -9.32181e-15 0
lhumerus -44.4508 1.38587 87.6801
lradius 20.2577 0 0
lwrist -2.29063 0 0
lhand -1.02063 -18.1609 0
lfingers 7.12502 0 0
lthumb 24.5956 10.093 0
rclavicle 2.27858e-14 -9.32181e-15 0
rhumerus -42.7718 18.8685 -90.4186
rradius 52.5415 0 0
rwrist -26.4305 0 0
rhand -31.1386 -26.6663 0
rfingers 7.12502 0 0
rthumb -4.41676 -56.5904 0
24
root 7.95618 15.8899 -33.9943 7.3414 -6.82417 -4.0744
lfemur -46.5427 9.11271 -15.9688
ltibia 45.5986 0 0
lfoot -8.11043 7.62803 0
ltoes -5.88844 0 0
rfemur 11.016 2.96338 25.3717
rtibia 24.1002 0 0
rfoot 8.48776 1.31915 0
rtoes -5.6335 0 0
lowerback -5.03501 1.145 0.942432
upperback -2.42801 1.42349 2.99704
thorax 0.213028 0.738986 2.66942
lowerneck -20.3557 -4.68806 -13.1491
upperneck 14.9743 -5.84631 16.2802
head 8.9621 -1.88207 7.07445
lclavicle 2.31124e-14 -1.02368e-14 0
lhumerus -44.6232 1.38178 87.7379
lradius 20.1014 0 0
lwrist -2.57481 0 0
lhand -0.637394 -18.0226 0
lfingers 7.12502 0 0
lthumb 24.9635 10.1889 0
rclavicle 2.31124e-14 -1.02368e-14 0
rhumerus -42.9403 18.8677 -90.6405
rradius 52.2944 0 0
rwrist -26.3087 0 0
rhand -31.0479 -26.685 0
rfingers 7.12502 0 0
rthumb -4.32915 -56.6109 0
25
root 7.98474 15.8888 -33.8138 7.32036 -7.07965 -4.0333
lfemur -46.4213 9.15062 -16.0477
ltibia 45.4418 0 0
lfoot -7.93132 7.58737 0
ltoes -5.64119 0 0
rfemur 11.4699 2.91784 25.1148
rtibia 24.2029 0 0
rfoot 8.59771 1.30079 0
rtoes -5.92068 0 0
lowerback -5.07899 1.15559 0.90633
upperback -2.44685 1.43896 3.00561
thorax 0.217214 0.746787 2.69974
lowerneck -20.4162 -4.67299 -13.1406
upperneck 15.0603 -5.81745 16.2205
head 8.99468 -1.87107 7.05848
lclavicle 2.34079e-14 -1.1129e-14 0
lhumerus -44.7796 1.36392 87.7948
lradius 19.9577 0 0
lwrist -2.84648 0 0
lhand -0.26899 -17.891 0
lfingers 7.12502 0 0
lthumb 25.3172 10.2796 0
rclavicle 2.34079e-14 -1.1129e-14 0
rhumerus -43.1067 18.8625 -90.8562
rradius 52.0436 0 0
rwrist -26.186 0 0
rhand -30.9581 -26.7019 0
rfingers 7.12502 0 0
rthumb -4.24241 -56.6297 0
26
root 8.01354 15.8881 -33.6308 7.29749 -7.32668 -3.98873
lfemur -46.2766 9.1831 -16.1322
ltibia 45.2714 0 0
lfoot -7.76038 7.54643 0
ltoes -5.39672 0 0
rfemur 11.8906 2.87469 24.8567
rtibia 24.3115 0 0
rfoot 8.68999 1.27767 0
rtoes -6.20826 0 0
lowerback -5.12339 1.16408 0.868175
upperback -2.46419 1.45181 3.01342
thorax 0.223415 0.75322 2.73019
lowerneck -20.4754 -4.65844 -13.1323
upperneck 15.1475 -5.78917 16.1592
head 9.0275 -1.86058 7.04188
lclavicle 2.36729e-14 -1.19982e-14 0
lhumerus -44.9204 1.33279 87.8508
lradius 19.8264 0 0
lwrist -3.10572 0 0
lhand 0.0846332 -17.766 0
lfingers 7.12502 0 0
lthumb 25.6568 10.3654 0
rclavicle 2.36729e-14 -1.19982e-14 0
rhumerus -43.2707 18.853 -91.0658
rradius 51.7897 0 0
rwrist -26.0628 0 0
rhand -30.8692 -26.7172 0
rfingers 7.12502 0 0
rthumb -4.15661 -56.6468 0
27
root 8.04253 15.8875 -33.4456 7.27288 -7.56525 -3.94086
lfemur -46.1095 9.21029 -16.222
ltibia 45.088 0 0
lfoot -7.59757 7.50527 0
ltoes -5.15523 0 0
rfemur 12.2788 2.83389 24.5978
rtibia 24.4257 0 0
rfoot 8.76507 1.24999 0
rtoes -6.49588 0 0
lowerback -5.16814 1.17054 0.828083
upperback -2.48007 1.46213 3.0205
thorax 0.231558 0.758323 2.76074
lowerneck -20.5332 -4.64441 -13.1239
upperneck 15.2358 -5.76148 16.0964
head 9.06051 -1.85058 7.02468
lclavicle 2.3908e-14 -1.2844e-14 0
lhumerus -45.0459 1.28884 87.9057
lradius 19.7073 0 0
lwrist -3.35262 0 0
lhand 0.423522 -17.6476 0
lfingers 7.12502 0 0
lthumb 25.9821 10.4461 0
rclavicle 2.3908e-14 -1.2844e-14 0
rhumerus -43.4322 18.8394 -91.2691
rradius 51.5329 0 0
rwrist -25.9392 0 0
rhand -30.7814 -26.7309 0
rfingers 7.12502 0 0
rthumb -4.07182 -56.6623 0
28
root 8.07167 15.8872 -33.2585 7.24661 -7.79531 -3.88986
lfemur -45.9209 9.23234 -16.3167
ltibia 44.8924 0 0
lfoot -7.44281 7.46395 0
ltoes -4.91696 0 0
rfemur 12.6349 2.79543 24.3384
rtibia 24.5451 0 0
rfoot 8.82344 1.21794 0
rtoes -6.78315 0 0
lowerback -5.21317 1.17503 0.786171
upperback -2.49452 1.46997 3.02685
thorax 0.241567 0.762132 2.79133
lowerneck -20.5896 -4.63089 -13.1157
upperneck 15.325 -5.7344 16.0323
head 9.09365 -1.84108 7.00693
lclavicle 2.41141e-14 -1.36661e-14 0
lhumerus -45.1564 1.23258 87.9596
lradius 19.6001 0 0
lwrist -3.58727 0 0
lhand 0.747724 -17.5356 0
lfingers 7.12502 0 0
lthumb 26.2934 10.5219 0
rclavicle 2.41141e-14 -1.36661e-14 0
rhumerus -43.5912 18.8218 -91.4661
rradius 51.2738 0 0
rwrist -25.8153 0 0
rhand -30.6947 -26.743 0
rfingers 7.12502 0 0
rthumb -3.98813 -56.6761 0
29
root 8.10092 15.887 -33.0698 7.21878 -8.01684 -3.8359
lfemur -45.7119 9.24938 -16.416
ltibia 44.6851 0 0
lfoot -7.29606 7.42253 0
ltoes -4.6821 0 0
rfemur 12.9596 2.75928 24.0788
rtibia 24.6693 0 0
rfoot 8.86555 1.18169 0
rtoes -7.0697 0 0
lowerback -5.25841 1.1776 0.742554
upperback -2.50755 1.47542 3.0325
thorax 0.253368 0.764685 2.82193
lowerneck -20.6446 -4.61789 -13.1075
upperneck 15.415 -5.70794 15.9671
head 9.12688 -1.83207 6.98868
lclavicle 2.42917e-14 -1.44641e-14 0
lhumerus -45.2524 1.16447 88.0125
lradius 19.5046 0 0
lwrist -3.80976 0 0
lhand 1.05729 -17.4301 0
lfingers 7.12502 0 0
lthumb 26.5905 10.5928 0
rclavicle 2.42917e-14 -1.44641e-14 0
rhumerus -43.7475 18.8004 -91.6568
rradius 51.0127 0 0
rwrist -25.6914 0 0
rhand -30.6093 -26.7535 0
rfingers 7.12502 0 0
rthumb -3.90561 -56.6884 0
30
root 8.13022 15.8871 -32.8799 7.18947 -8.22981 -3.77916
lfemur -45.4834 9.26155 -16.5198
ltibia 44.4669 0 0
lfoot -7.15726 7.38108 0
ltoes -4.45087 0 0
rfemur 13.2534 2.72541 23.8196
rtibia 24.7981 0 0
rfoot 8.89188 1.14143 0
rtoes -7.35517 0 0
lowerback -5.30379 1.17832 0.697348
upperback -2.5192 1.47854 3.03745
thorax 0.266886 0.76602 2.85249
lowerneck -20.6981 -4.60541 -13.0994
upperneck 15.5056 -5.68212 15.9008
head 9.16015 -1.82355 6.96995
lclavicle 2.44415e-14 -1.52378e-14 0
lhumerus -45.3342 1.085 88.0642
lradius 19.4205 0 0
lwrist -4.02017 0 0
lhand 1.35226 -17.3309 0
lfingers 7.12502 0 0
lthumb 26.8737 10.6589 0
rclavicle 2.44415e-14 -1.52378e-14 0
rhumerus -43.9009 18.7754 -91.841
rradius 50.7502 0 0
rwrist -25.5676 0 0
rhand -30.5251 -26.7625 0
rfingers 7.12502 0 0
rthumb -3.82434 -56.6991 0
